<svg width="512" height="512" viewBox="0 0 512 512" fill="none" xmlns="http://www.w3.org/2000/svg">
  <!-- Background: brand blue gradient, rounded like app icon -->
  <rect width="512" height="512" rx="112" fill="url(#bg)"/>

  <!-- Bold white S — thick strokes, readable at any size -->
  <path d="
    M 152 164
    L 360 164
    C 378 164 392 176 392 192
    L 392 232
    C 392 248 378 260 360 260
    L 192 260
    C 180 260 172 268 172 280
    L 172 280
    C 172 292 180 300 192 300
    L 360 300
    C 378 300 392 312 392 328
    L 392 368
    C 392 384 378 396 360 396
    L 152 396
    C 134 396 120 384 120 368
    L 120 328
    C 120 312 134 300 152 300
    L 320 300
    C 332 300 340 292 340 280
    L 340 280
    C 340 268 332 260 320 260
    L 152 260
    C 134 260 120 248 120 232
    L 120 192
    C 120 176 134 164 152 164
    Z
  " fill="white"/>

  <defs>
    <linearGradient id="bg" x1="0" y1="0" x2="512" y2="512" gradientUnits="userSpaceOnUse">
      <stop offset="0%" stop-color="#1E3A8A"/>
      <stop offset="100%" stop-color="#2563EB"/>
    </linearGradient>
  </defs>
</svg>
